<svg id="Layer_1" data-name="Layer 1" xmlns="http://www.w3.org/2000/svg" viewBox="0 0 512 512"><title>heartbeat-flat</title><path d="M0,256C0,114.61,114.61,0,256,0S512,114.63,512,256,397.38,512,256,512,0,397.39,0,256Z" fill="#00c7ff"/><path d="M409.86,283.6v22.58H360.94l-25.42,48.45a11.37,11.37,0,0,1-11.28,6.13,10.62,10.62,0,0,1-9.89-7.52l-19.29-56-16.92,40.91a14.06,14.06,0,0,1-12.26,7.07,12.58,12.58,0,0,1-9.89-9.89l-16-98.81L220.7,387.12A10.81,10.81,0,0,1,209.87,397h-.45c-5.19,0-9.89-4.25-11.31-9.43L176,271.35l-13.65,28.72A11.66,11.66,0,0,1,152,306.18H104.46V283.6h40l25.88-53.66a11.8,11.8,0,0,1,11.77-6.58c5.16.94,8.95,4.25,9.89,9.4l15.53,81.9,19.75-152.94c.49-5.64,5.19-9.4,10.83-9.4,5.64-.49,10.34,3.76,11.77,9.4l21.63,131.77,14.13-32.94c1.88-4.25,6.1-7.54,10.83-7.07,5.16,0,8.91,3.31,10.8,7.52l20.24,59.77,16.47-31a11,11,0,0,1,9.89-6.13Z" fill="#fff"/></svg>