<svg xmlns="http://www.w3.org/2000/svg" width="100.484" height="107.518" viewBox="0 0 100.484 107.518">
    <defs>
        <style>
            .cls-2,.cls-3,.cls-5{fill:#fff;stroke:#2d2d2d;stroke-miterlimit:10}.cls-3,.cls-5{fill:none;stroke-linecap:round}.cls-5{fill:#4285f4}
        </style>
    </defs>
    <g id="Group_106692" transform="translate(-1418.259 -598.502)">
        <path id="Path_186362" fill="#f6ffdf" d="M36.712 94.9a120.25 120.25 0 0 1-17.167-14.29A120 120 0 0 1 5.58 63.771 19.609 19.609 0 0 1 0 50.242a19.077 19.077 0 0 1 5.58-13.53A164.295 164.295 0 0 1 36.712 5.58 19.623 19.623 0 0 1 50.242 0a19.074 19.074 0 0 1 13.53 5.58A186.71 186.71 0 0 1 79.5 19.482a187.106 187.106 0 0 1 15.4 17.23 19.6 19.6 0 0 1 5.58 13.529 19.075 19.075 0 0 1-5.58 13.53A186.052 186.052 0 0 1 78.721 81.79a187.135 187.135 0 0 1-14.95 13.11 19.763 19.763 0 0 1-8.228 4.841 18.827 18.827 0 0 1-5.3.739 19.848 19.848 0 0 1-6.585-1.28 21.258 21.258 0 0 1-6.946-4.3z" transform="translate(1418.259 598.502)"/>
        <path id="Path_186363" d="M973.407-95.768l-21.07.107c-5.768.03-10.516-5.261-10.55-11.756a230.546 230.546 0 0 1-1.836-27.7 230.638 230.638 0 0 1 1.554-28.156 13.012 13.012 0 0 1 3.04-8.356 9.909 9.909 0 0 1 7.391-3.5l21.07-.107c5.771-.03 10.518 5.261 10.55 11.756.85 6.547 1.494 13.745 1.752 21.518a225.875 225.875 0 0 1-1.471 34.342 13.183 13.183 0 0 1-2.309 7.408 10.617 10.617 0 0 1-8.121 4.444z" class="cls-2" transform="translate(500.802 801.181)"/>
        <path id="Path_186364" d="M947.855-172.968c1.844-.13 3.816-.207 5.9-.2 2.015 0 3.918.079 5.7.2" class="cls-3" transform="translate(509.752 803.526)"/>
        <circle id="Ellipse_15055" cx="3.186" cy="3.186" r="3.186" fill="#c7dcff" stroke="#2d2d2d" stroke-linecap="round" stroke-miterlimit="10" transform="translate(1460.598 695.677)"/>
        <path id="Path_186366" d="M945.941-151.91q5.033.077 10.2.081 5.4 0 10.65-.081" class="cls-5" transform="translate(507.586 827.59)"/>
        <path id="Path_186367" d="M946.868-177.414a14.513 14.513 0 0 1 8.518-2.746 14.5 14.5 0 0 1 8.38 2.746" class="cls-3" transform="translate(508.635 795.619)"/>
        <path id="Path_186368" d="M949.023-176.434a6.628 6.628 0 0 1 3.888-1.251 6.617 6.617 0 0 1 3.822 1.251" class="cls-3" transform="translate(511.073 798.419)"/>
        <path id="Path_186369" d="M943.921-177.689a25.286 25.286 0 0 1 14.854-4.788 25.292 25.292 0 0 1 14.611 4.788" class="cls-3" transform="translate(505.3 792.996)"/>
        <path id="Path_186370" d="M945.941-149.279q5.033.08 10.2.081 5.4 0 10.65-.081" class="cls-5" transform="translate(507.586 830.567)"/>
        <path id="Path_186371" d="M945.941-146.353q5.033.08 10.2.081 5.4 0 10.65-.081" class="cls-5" transform="translate(507.586 833.878)"/>
        <path id="Path_186372" fill="#ffabaf" stroke="#221f20" stroke-miterlimit="10" d="M1275.172 525a1.656 1.656 0 0 0-1.733-.873c-.823.1-1.65.187-2.479.261a.437.437 0 0 1-.457-.313 8.694 8.694 0 0 0-1.377-2.623.445.445 0 0 1 .376-.71q2.057.1 4.1.269a1.583 1.583 0 0 0 1.717-1.423 1.7 1.7 0 0 0-1.583-1.766c-3.148-.255-6.346-.368-9.508-.378-.3 0-.6.007-.907.01a1.477 1.477 0 0 0-.24 0c-2.682.031-5.387.151-8.061.369a1.635 1.635 0 0 0-1.485 1.183 1.6 1.6 0 0 0 1.544 2.008 1.309 1.309 0 0 0 .132-.006c2.3-.251 5.264-1.143 7.733-.362a7.079 7.079 0 0 1 2.825 1.8 7.793 7.793 0 0 1 1.2 1.546.444.444 0 0 1-.372.663c-.636.021-1.272.035-1.906.037a71.891 71.891 0 0 1-9.415-.577 1.6 1.6 0 0 0-1.773 1.884 1.634 1.634 0 0 0 1.44 1.29 76.079 76.079 0 0 0 9.472.594h.288c.513 0 1.026-.011 1.539-.024a.442.442 0 0 1 .359.722 5.936 5.936 0 0 1-1.826 1.38 7.984 7.984 0 0 1-5.061.208c-1.489-.279-3.178-.6-4.118.845-1.247 1.912.506 4.479 3.523 7.745a36.1 36.1 0 0 0 9.894 7.493 1.6 1.6 0 0 0 2.284-1.019 1.654 1.654 0 0 0-.889-1.852 44.519 44.519 0 0 1-8.945-6.787c-1.293-1.234-2.9-3.127-2.692-3.355.064-.072.291.036.356.065a10.3 10.3 0 0 0 7.024-.466 8.239 8.239 0 0 0 4.48-5.206.022.022 0 0 1 .019-.017c1.1-.091 2.192-.2 3.279-.335a1.6 1.6 0 0 0 1.243-2.28z" transform="translate(199.989 122.557)"/>
        <path id="Path_43909-2" d="M993.625-127.793c-6.721-3.848-8.776-6.928-9.313-9.115-.1-.405-.542-1.669-1.083-3.443a11.714 11.714 0 0 0-2.844-4.792 7.886 7.886 0 0 0-5.095-2.773c-3.008-.62-5.131.475-7.691-.051-1.633-.337-3.2-1.818-6.331-4.767a68.646 68.646 0 0 1-4.882-5.082 1.787 1.787 0 0 0-1.422-.635 1.556 1.556 0 0 0-1.117.552c-.469.618-.186 1.6.211 2.535a15.843 15.843 0 0 0 3.588 5.095c2.55 2.266 8.93 7.815 9.548 10.441a2.276 2.276 0 0 1-.16 1.735 2.007 2.007 0 0 1-1.138.78c-1.049.339-1.748-.051-3.846-.552a6.671 6.671 0 0 0-3.245-.35c-.752.2-2.038.819-1.989 1.652.03.548.622 1.051 1.417 1.324 5.268 1.808 7.6 3.468 9.985 3.7 3.583.35 9.669 2.669 20.663 11.3" class="cls-2" transform="translate(514.203 820.186)"/>
    </g>
</svg>
