<svg xmlns="http://www.w3.org/2000/svg" width="123.38" height="107.518" viewBox="0 0 123.38 107.518">
    <defs>
        <style>
            .cls-2,.cls-4,.cls-5,.cls-6{fill:#fff}.cls-3{fill:none}.cls-3,.cls-5,.cls-6{stroke:#2d2d2d}.cls-3,.cls-4,.cls-5,.cls-6{stroke-miterlimit:10}.cls-4{stroke:#222}.cls-4,.cls-5{stroke-linecap:round}
        </style>
    </defs>
    <g id="Group_106775" transform="translate(-886.862 -598.502)">
        <g id="Group_106774">
            <path id="Path_186382" fill="#f6ffdf" d="M36.712 94.9a120.25 120.25 0 0 1-17.167-14.29A120 120 0 0 1 5.58 63.771 19.609 19.609 0 0 1 0 50.242a19.077 19.077 0 0 1 5.58-13.53A164.295 164.295 0 0 1 36.712 5.58 19.623 19.623 0 0 1 50.242 0a19.074 19.074 0 0 1 13.53 5.58A186.71 186.71 0 0 1 79.5 19.482a187.106 187.106 0 0 1 15.4 17.23 19.6 19.6 0 0 1 5.58 13.529 19.075 19.075 0 0 1-5.58 13.53A186.052 186.052 0 0 1 78.721 81.79a187.135 187.135 0 0 1-14.95 13.11 19.763 19.763 0 0 1-8.228 4.841 18.827 18.827 0 0 1-5.3.739 19.848 19.848 0 0 1-6.585-1.28 21.258 21.258 0 0 1-6.946-4.3z" transform="translate(909.758 598.502)"/>
            <g id="Group_106731" transform="translate(796.416 570.901)">
                <path id="Path_186383" d="M127.205 53.935l.492 3.1-.711 1.039-15.258.323 6.606-3.63z" class="cls-2" transform="translate(39.419 23.07)"/>
                <path id="Path_186385" d="M115.076 52.437l-.318-9.053 5.368-1.592 4.959 1.092-.5 6.687-7.006 4.094-1.932 1.72z" class="cls-2" transform="translate(38.368 3.503)"/>
                <circle id="Ellipse_15056" cx="11.233" cy="11.233" r="11.233" class="cls-4" transform="translate(177.643 112.151)"/>
                <path id="Path_186386" d="M137.664 65.017a14.421 14.421 0 0 1 8.179 2.674c1.76 1.293 4.873 4.254 4.149 5.784-1.026 2.175-8.061-2.2-13.764 1.118-5.293 3.079-5.327 10.393-9.2 10.453a5.2 5.2 0 0 1-3.728-1.676 5.076 5.076 0 0 1-1.115-2.554 13.743 13.743 0 0 1 3.152-10.61c4.463-5.293 11.204-5.22 12.327-5.189z" class="cls-5" transform="translate(50.123 40.919)"/>
                <path id="Path_186387" d="M124.649 42.785c1.392 4.191.091 8.651-2.82 10.654-3.055 2.1-6.536.577-6.915.4" class="cls-6" transform="translate(38.621 5.104)"/>
                <path id="Path_186388" d="M126.416 51.882c2.825 2.246 2.4 6.964 2.235 9.636-.125 2.013-.475 7.6-4.591 10.8-2 1.549-5.257 1.723-11.777 2.076 0 0-6.7.36-11.811-1.363a10.763 10.763 0 0 1-3.016-1.533 11.009 11.009 0 0 1-2.356-2.436 21.734 21.734 0 0 1-3.82-9.189 22.643 22.643 0 0 1-.28-5.437 3.15 3.15 0 0 1 .817-2.063A3.435 3.435 0 0 1 93.7 51.4a81.516 81.516 0 0 1 15.464-1.564c2.355.021 3.941.039 5.238.073.919.023 2.319.081 3.525.175 4.603.362 6.907.542 8.489 1.798z" class="cls-6" transform="translate(0 16.467)"/>
                <circle id="Ellipse_15057" cx="11.233" cy="11.233" r="11.233" class="cls-4" transform="translate(121.384 112.151)"/>
                <path id="Path_186390" fill="#c7dcff" stroke="#2d2d2d" stroke-linecap="round" stroke-miterlimit="10" d="M114.191 66.012a47.774 47.774 0 0 1 12.584.851A20.546 20.546 0 0 0 123.054 73a21.7 21.7 0 0 0-.381 13.892l2.875.191a48.474 48.474 0 0 1 2.76-10.333c.979-2.483 1.747-5.05 2.812-7.5.956-2.194 1.695-3.6 1.261-5.277a5.865 5.865 0 0 0-2.747-3.335 41.97 41.97 0 0 0-18-4.682z" transform="translate(33.337 26.327)"/>
                <path id="Path_186391" d="M160.821 54.931a44.589 44.589 0 0 1 9.887 11.633c2.653 4.528 5.042 8.6 4.262 13.72a17.443 17.443 0 0 1-3.494 7.669 24.756 24.756 0 0 1-7.8 6.808 40.844 40.844 0 0 1-16.566 5.21c-5.343.637-20.528 2.243-35.835-5.881-4.784-2.538-10.717-5.792-11.592-11.419-.53-3.429 1.008-6.481 2.248-8.949a27.088 27.088 0 0 1 9.8-10.652q7.372 3.611 14.746 7.226c.052 1.366.454 8.361 6.048 13.057a18.237 18.237 0 0 0 9.5 3.92 18.432 18.432 0 0 0 8.309-.6c1.2-.379 7.39-2.345 10-8.085 1.582-3.478 1.222-6.962.971-9.4-.4-3.9-1.643-6.006-1.256-10.294a19.861 19.861 0 0 1 .772-3.963z" class="cls-5" transform="translate(13.907 24.675)"/>
                <path id="Path_186392" d="M121.685 57.909a6.583 6.583 0 0 1 1.3-3.387 6.735 6.735 0 0 1 3.813-2.444 1.625 1.625 0 0 1-.277-1.092c.123-.825 1-1.24 1.452-1.452a3.87 3.87 0 0 1 2.17-.339c2.632.447 3.81 5.795 4.092 7.092.269 1.214 1.076 5.46-.684 8.761a4.081 4.081 0 0 1-4.745 2.335h-.037l-.016-.005-1.723-1.525-.03-.024-1.8-1.6c-.076-.144-.159-.282-.238-.426" class="cls-5" transform="translate(49.531 15.37)"/>
                <path id="Path_186393" fill="#ffabaf" stroke="#2d2d2d" stroke-linecap="round" stroke-miterlimit="10" d="M113.484 55.556c-2.549-4.1-.763-8.667-.561-9.161a10.32 10.32 0 0 1 2.523-3.648 11.35 11.35 0 0 1 5.609-2.9c.823-.154 4.755-.9 7.946 1.5 1.948 1.462 4.246 4.306 3.46 5.7-1.248 2.222-8.659-2.076-11.981 1.05-3.194 3.006.232 10.2-1.935 11.171-1.384.625-3.888-1.822-5.061-3.712z" transform="translate(34.131)"/>
                <path id="Path_186394" d="M131.245 55.012a5.845 5.845 0 0 0 1.11-4.943 5.63 5.63 0 0 0-4.178-4.006 9.864 9.864 0 0 0-5.539.342 14.439 14.439 0 0 0-6.988 5.2 47.952 47.952 0 0 0-4.554 7.581c-.7 1.46-1.2 2.677-1.582 3.669-4.006 10.349-6.116 15.6-3.92 18.663 1.862 2.6 5.544 2.94 10.568 3.408 4.413.413 8.711.815 10.652-1.619 1.585-1.985-.1-3.737-.17-12.187-.042-4.646.2-6.87 1.024-9.375a22.591 22.591 0 0 1 3.577-6.733z" class="cls-6" transform="translate(22.177 9.979)"/>
                <path id="Path_186395" d="M118.131 70.512a4.338 4.338 0 0 1-.65-.044l-.044-.005a4.318 4.318 0 0 1-1.261-.366c-4.478-2.071-4.912-9.043-4.951-9.884a14.607 14.607 0 0 1 2.233-8.4.523.523 0 0 0 .042-.073 17.265 17.265 0 0 1 3.849-4.447 3.6 3.6 0 0 1 2.162-.843 1.848 1.848 0 0 1 .5.086 1.908 1.908 0 0 1 .747.475 5.154 5.154 0 0 1 1.3 3.371v.018a4.17 4.17 0 0 1-.3 1.737 24.53 24.53 0 0 1-1.972 3.243.3.3 0 0 0-.039.06 17.009 17.009 0 0 0-1.436 2.956c-.763 2.021-1.436 3.813-.608 5.058.279.413.783 1.277 5.967 1.277a65.523 65.523 0 0 0 9.819-.17c.141-.01.269-.026.4-.042a6.675 6.675 0 0 0 1.314-.3c1.347-.46 1.653-1.055 3.366-1.94 1.107-.577 1.676-.859 2.363-.726a3.074 3.074 0 0 1 1.81 1.491 4.582 4.582 0 0 1 .692 3.269 1.948 1.948 0 0 1-1.588 1.864 1.2 1.2 0 0 1-.616-.042c-.705-.248-.669-1.081-1.193-1.616-.491-.5-1.577-.747-4.092.17-.52.154-1.031.3-1.53.441" class="cls-5" transform="translate(32.646 11)"/>
                <path id="Path_186396" d="M120.883 48.081a5.126 5.126 0 0 0-1.157-1.233 5.065 5.065 0 0 0-1.374-.742l-7.249 4.687 4.7 2.429 3.58-2.332z" class="cls-2" transform="translate(32.482 10.457)"/>
                <path id="Path_186397" d="M113.171 59.27c4.029.368 7.364.452 9.738.457 5.455.008 8.215-.4 8.6-1.666a9.577 9.577 0 0 0-.334-2.436c-.183-.974-.355-1.768-.475-2.293" class="cls-3" transform="translate(35.812 22.099)"/>
                <path id="Path_186399" d="M123.682 50.311a16.868 16.868 0 0 1 1.878 15.282" class="cls-3" transform="translate(52.749 17.231)"/>
                <path id="Union_2" fill="#ffabaf" stroke="#2d2d2d" stroke-miterlimit="10" d="M101.01 64.814l-.016-1.609a1.461 1.461 0 0 0-1.473-1.449l-1.611.016a2.393 2.393 0 0 1-.042-4.787l1.609-.013a1.462 1.462 0 0 0 1.449-1.475l-.013-1.606a2.392 2.392 0 1 1 4.784-.042l.016 1.609a1.459 1.459 0 0 0 1.473 1.449l1.606-.013a2.392 2.392 0 1 1 .044 4.784l-1.611.013a1.462 1.462 0 0 0-1.449 1.47v.005l.016 1.606a2.392 2.392 0 1 1-4.784.042z" transform="translate(7.333 19.111)"/>
            </g>
        </g>
    </g>
</svg>
