<svg id="Layer_1" data-name="Layer 1" xmlns="http://www.w3.org/2000/svg" viewBox="0 0 512 512"><title>heart-organ-flat</title><path d="M0,256C0,114.61,114.61,0,256,0S512,114.63,512,256,397.38,512,256,512,0,397.39,0,256Z" fill="#00c7ff"/><path d="M268.34,319.24c8.48,8.46,21.64,12.7,29.65,14.58,11.28-23.53,20.7-52.23,20.23-76.24a95.14,95.14,0,0,0-2.35-21.64c-17.41,59.3-80.48,50.83-47.53,83.3Z" fill="#fff" fill-rule="evenodd"/><path d="M309.76,220.88c-4.72-7.52-10.83-10.82-17-13.17a23.09,23.09,0,0,1-3.29-1.42c-2.35-1.41-3.76-12.23-.94-28.69,1.41-7.54,6.6-16,6.6-16.47a3.53,3.53,0,0,0,0-4.24,5,5,0,0,0-3.31-2.83l-13.16-2.35c-2.37-.94-4.72.94-5.66,3.3-2.82,13.18-13.18,41.88-16.94,46.12-.47.47-.94,1.41-1.41,1.41-1.41,0-4.23-2.82-4.23-6.58-.47-6.6,2.35-30.12,3.29-42.36a4.28,4.28,0,0,0-1.41-3.29,4.07,4.07,0,0,0-3.29-1.88h-11.3a4.44,4.44,0,0,0-4.7,4.7c0,.47-2.82,26.36-4.7,38.12-.94,4.71-3.31,15.05-6.13,15.05a3.05,3.05,0,0,1-2.35-.94c-5.64-2.35-9.87-21.64-11.28-28.69-2.35-10.36-3.29-18.36-3.29-18.36a5.76,5.76,0,0,0-1.89-3.76,4.79,4.79,0,0,0-4.24-.95l-13.65,3.77c-2.35.47-3.76,3.3-3.29,5.65a114.93,114.93,0,0,1,6.11,21.64,16.85,16.85,0,0,1-7.05,17.41c-1.41.94-2.82,1.41-3.76,2.35a34.94,34.94,0,0,0-7.54,7.06c56,15.53,110.6,146.82,139.78,9.41Z" fill="#fff" fill-rule="evenodd"/><path d="M293.75,342.29c-8.47,16-17.87,28.24-24.47,34.35-7.05,6.11-15.06,9.41-24,9.41-17.41,0-38.11-12.7-62.59-38.59-23.06-24-30.12-51.75-32-70.59-2.35-22.11,1.43-43.29,9.42-55.05h0l2.35-2.35c84.24,20.23,63.06,70.59,98.83,106.35,9.4,9.42,23.05,14.12,32.46,16.47Z" fill="#fff" fill-rule="evenodd"/></svg>